<?xml version="1.0" encoding="UTF-8"?>
<svg width="107px" height="24px" viewBox="0 0 107 24" version="1.1" xmlns="http://www.w3.org/2000/svg" xmlns:xlink="http://www.w3.org/1999/xlink">
    <!-- Generator: Sketch 52.4 (67378) - http://www.bohemiancoding.com/sketch -->
    <title>eDreams_logo_negative</title>
    <desc>Created with Sketch.</desc>
    <g id="eDreams_logo_negative" stroke="none" stroke-width="1" fill="none" fill-rule="evenodd">
        <g id="eDreams/24px/negative">
            <g id="Logo_eDreams_RGB" transform="translate(0.000000, 3.000000)">
                <path d="M3.17991968,16.1571429 L1.67590361,16.1571429 C0.773493976,16.1571429 0.0322289157,16.8964286 0.0322289157,17.7964286 L0.0322289157,19.2964286 C0.0322289157,20.1964286 0.773493976,20.9357143 1.67590361,20.9357143 L3.17991968,20.9357143 C4.09307229,20.9357143 4.82359438,20.1964286 4.82359438,19.2964286 L4.82359438,17.7964286 C4.82359438,16.8964286 4.09307229,16.1571429 3.17991968,16.1571429 Z" id="Shape" fill="#FFCC00" fill-rule="nonzero"></path>
                <path d="M10.5603414,12.075 L8.04648594,12.075 C6.90773092,12.075 5.99457831,12.9964286 5.99457831,14.1214286 L5.99457831,16.6285714 C5.99457831,17.7642857 6.9184739,18.675 8.04648594,18.675 L10.5603414,18.675 C11.6990964,18.675 12.612249,17.7535714 12.612249,16.6285714 L12.612249,14.1214286 C12.612249,12.9857143 11.6883534,12.075 10.5603414,12.075 Z" id="Shape" fill="#FFCC00" fill-rule="nonzero"></path>
                <path d="M27.9961847,0.0964285714 L16.6838353,0.0964285714 C15.5450803,0.0964285714 14.6319277,1.01785714 14.6319277,2.14285714 L14.6319277,13.4142857 C14.6319277,14.55 15.5558233,15.4607143 16.6838353,15.4607143 L27.9854418,15.4607143 C29.1241968,15.4607143 30.0373494,14.5392857 30.0373494,13.4142857 L30.0373494,2.14285714 C30.0480924,1.00714286 29.1241968,0.0964285714 27.9961847,0.0964285714 Z" id="Shape" fill="#FFCC00" fill-rule="nonzero"></path>
                <path d="M78.1658635,4.28571429 C76.6081325,4.28571429 75.5875502,4.47857143 74.4165663,5.15357143 C74.0513052,5.36785714 73.8686747,5.76428571 73.8686747,6.15 C73.8686747,6.68571429 74.3413655,7.125 74.9322289,7.125 C75.1256024,7.125 75.3619478,7.03928571 75.5338353,6.93214286 C76.2965863,6.48214286 76.8552209,6.34285714 77.8758032,6.34285714 C79.0038153,6.34285714 79.6698795,7.06071429 79.6698795,7.96071429 L79.6698795,8.72142857 L77.4568273,8.72142857 C76.1354418,8.72142857 75.0933735,9.04285714 74.3521084,9.675 C73.6215863,10.2857143 73.2240964,11.1 73.2240964,12.1607143 C73.2240964,13.2214286 73.6108434,14.1107143 74.3521084,14.7321429 C75.0933735,15.3642857 76.1354418,15.6857143 77.4568273,15.6857143 C78.6707831,15.6857143 79.9062249,15.4928571 80.9697791,15.1285714 C81.5284137,14.9357143 81.9259036,14.4107143 81.9259036,13.8107143 L81.9259036,7.97142857 C81.9151606,6.03214286 80.5937751,4.28571429 78.1658635,4.28571429 Z M79.6806225,13.3392857 C78.9823293,13.5107143 78.1873494,13.6178571 77.4460843,13.6178571 C75.5553213,13.6178571 75.4478916,12.5357143 75.4478916,12.15 C75.4478916,11.7857143 75.5553213,10.7678571 77.4460843,10.7678571 L79.6806225,10.7678571 L79.6806225,13.3392857 Z" id="Shape" fill="#FFFFFF" fill-rule="nonzero"></path>
                <path d="M104.625803,9.25714286 L102.498695,8.56071429 C102.036747,8.41071429 101.607028,8.05714286 101.607028,7.5 C101.607028,6.76071429 102.187149,6.33214286 103.078815,6.33214286 C103.798594,6.33214286 104.679518,6.50357143 105.22741,6.76071429 C105.377811,6.825 105.592671,6.86785714 105.753815,6.86785714 C106.333936,6.86785714 106.795884,6.39642857 106.795884,5.82857143 C106.795884,5.37857143 106.516566,4.98214286 106.076104,4.81071429 C105.356325,4.48928571 104.604317,4.275 103.13253,4.275 C100.96245,4.275 99.3832329,5.63571429 99.3832329,7.54285714 C99.3832329,9.16071429 100.296386,10.0714286 101.467369,10.5107143 L103.23996,11.1535714 C104.045683,11.4321429 104.690261,11.7 104.690261,12.4928571 C104.690261,13.2321429 104.142369,13.6178571 103.111044,13.6178571 C102.15492,13.6178571 101.445884,13.425 100.85502,13.1142857 C100.704618,13.05 100.511245,12.9857143 100.360843,12.9857143 C99.748494,12.9857143 99.2758032,13.5107143 99.2758032,14.0678571 C99.2758032,14.4964286 99.5336345,14.8714286 99.9418675,15.0642857 C100.74759,15.4285714 101.789659,15.675 103.068072,15.675 C105.388554,15.675 106.924799,14.1857143 106.924799,12.2785714 C106.924799,10.7035714 106.054618,9.73928571 104.625803,9.25714286 Z" id="Shape" fill="#FFFFFF" fill-rule="nonzero"></path>
                <path d="M93.8613454,4.28571429 C92.7763052,4.28571429 91.712751,4.58571429 90.8210843,5.175 C90.1442771,4.61785714 89.2418675,4.28571429 88.1997992,4.28571429 C86.9428715,4.28571429 85.8363454,4.47857143 84.7083333,4.90714286 C84.1711847,5.12142857 83.7951807,5.64642857 83.7951807,6.225 L83.7951807,14.55 C83.7951807,15.1821429 84.2893574,15.675 84.9231928,15.675 C85.5355422,15.675 86.0297189,15.1821429 86.0297189,14.55 L86.0297189,6.64285714 C86.728012,6.45 87.2007028,6.34285714 87.9849398,6.34285714 C88.9410643,6.34285714 89.7575301,6.66428571 89.7575301,7.92857143 L89.7575301,14.5607143 C89.7575301,15.1928571 90.2517068,15.6857143 90.8640562,15.6857143 C91.4871486,15.6857143 91.9920683,15.1928571 91.9920683,14.5607143 L91.9920683,6.91071429 C92.5292169,6.56785714 93.1845382,6.35357143 93.8613454,6.35357143 C94.8819277,6.35357143 95.7306225,7.2 95.7306225,8.21785714 L95.7306225,14.5714286 C95.7306225,15.2035714 96.2033133,15.6964286 96.8371486,15.6964286 C97.4709839,15.6964286 97.9651606,15.2035714 97.9651606,14.5714286 L97.9651606,8.38928571 C97.9544177,6.03214286 96.2033133,4.28571429 93.8613454,4.28571429 Z" id="Shape" fill="#FFFFFF" fill-rule="nonzero"></path>
                <path d="M39.1796185,4.28571429 C37.9226908,4.28571429 36.8376506,4.69285714 36.0319277,5.49642857 C35.2476908,6.27857143 34.8394578,7.36071429 34.8394578,8.61428571 L34.8394578,11.3357143 C34.8394578,12.6107143 35.2476908,13.6928571 36.0319277,14.475 C36.8376506,15.2785714 37.9226908,15.6857143 39.1796185,15.6857143 C40.3291165,15.6857143 41.4356426,15.45 42.4777108,14.9464286 C42.8644578,14.7535714 43.0363454,14.3892857 43.0363454,13.9714286 C43.0363454,13.4142857 42.5206827,12.9535714 41.9727912,12.9535714 C41.8223896,12.9535714 41.671988,12.9964286 41.5215863,13.0607143 C40.7803213,13.3821429 40.0068273,13.6178571 39.1796185,13.6178571 C38.4383534,13.6178571 37.8797189,13.3607143 37.5144578,12.8785714 C37.2351406,12.4928571 37.084739,11.9035714 37.084739,11.0142857 L42.1339357,11.0142857 C42.9181727,11.0142857 43.5412651,10.3928571 43.5412651,9.61071429 L43.5412651,8.59285714 C43.5412651,7.33928571 43.1115462,6.25714286 42.3273092,5.475 C41.5430723,4.69285714 40.4580321,4.28571429 39.1796185,4.28571429 Z M37.073996,8.97857143 C37.073996,7.16785714 37.815261,6.34285714 39.1796185,6.34285714 C40.5654618,6.34285714 41.3067269,7.18928571 41.3067269,8.97857143 L37.073996,8.97857143 Z" id="Shape" fill="#FFFFFF" fill-rule="nonzero"></path>
                <path d="M67.8740964,4.28571429 C66.6171687,4.28571429 65.5321285,4.69285714 64.7264056,5.49642857 C63.9421687,6.27857143 63.5339357,7.36071429 63.5339357,8.61428571 L63.5339357,11.3357143 C63.5339357,12.6107143 63.9421687,13.6928571 64.7264056,14.475 C65.5321285,15.2785714 66.6171687,15.6857143 67.8740964,15.6857143 C69.0235944,15.6857143 70.1301205,15.45 71.1721888,14.9464286 C71.5589357,14.7535714 71.7308233,14.3892857 71.7308233,13.9714286 C71.7308233,13.4142857 71.2151606,12.9535714 70.6672691,12.9535714 C70.5168675,12.9535714 70.3664659,12.9964286 70.2160643,13.0607143 C69.4747992,13.3821429 68.7013052,13.6178571 67.8740964,13.6178571 C67.1328313,13.6178571 66.5741968,13.3607143 66.2089357,12.8785714 C65.9296185,12.4928571 65.7792169,11.9035714 65.7792169,11.0142857 L70.8284137,11.0142857 C71.6126506,11.0142857 72.235743,10.3928571 72.235743,9.61071429 L72.235743,8.59285714 C72.235743,7.33928571 71.8060241,6.25714286 71.0217871,5.475 C70.2375502,4.69285714 69.163253,4.28571429 67.8740964,4.28571429 Z M65.7792169,8.97857143 C65.7792169,7.16785714 66.5204819,6.34285714 67.8848394,6.34285714 C69.2706827,6.34285714 70.0119478,7.18928571 70.0119478,8.97857143 L65.7792169,8.97857143 Z" id="Shape" fill="#FFFFFF" fill-rule="nonzero"></path>
                <path d="M62.1803213,4.45714286 C61.6324297,4.35 61.0952811,4.28571429 60.5581325,4.28571429 C58.7103414,4.28571429 57.324498,5.66785714 57.324498,7.51071429 L57.324498,14.5607143 C57.324498,15.1928571 57.8186747,15.6857143 58.45251,15.6857143 C59.0648594,15.6857143 59.5590361,15.1928571 59.5590361,14.5607143 L59.5590361,7.33928571 C59.5590361,6.80357143 60.010241,6.34285714 60.5581325,6.34285714 C60.9019076,6.34285714 61.2886546,6.42857143 61.6431727,6.51428571 C61.8150602,6.55714286 61.8795181,6.55714286 62.0084337,6.55714286 C62.6422691,6.55714286 63.071988,6.10714286 63.071988,5.51785714 C63.071988,5.00357143 62.7067269,4.56428571 62.1803213,4.45714286 Z" id="Shape" fill="#FFFFFF" fill-rule="nonzero"></path>
                <path d="M49.4821285,0.3 L46.624498,0.3 C45.840261,0.3 45.2171687,0.932142857 45.2171687,1.68214286 L45.2171687,14.0785714 C45.2171687,14.8285714 45.840261,15.4607143 46.624498,15.4607143 L49.4821285,15.4607143 C53.0380522,15.4607143 55.4444779,13.1035714 55.4444779,9.57857143 L55.4444779,6.18214286 C55.4444779,2.66785714 53.0380522,0.3 49.4821285,0.3 Z M53.1454819,9.62142857 C53.1454819,11.8928571 51.8240964,13.275 49.5036145,13.275 L47.5054217,13.275 L47.5054217,2.48571429 L49.5036145,2.48571429 C51.8240964,2.48571429 53.1454819,3.84642857 53.1454819,6.13928571 L53.1454819,9.62142857 Z" id="Shape" fill="#FFFFFF" fill-rule="nonzero"></path>
            </g>
        </g>
    </g>
</svg>